<!DOCTYPE svg PUBLIC "-//W3C//DTD SVG 1.1//EN" "http://www.w3.org/Graphics/SVG/1.1/DTD/svg11.dtd">
<!-- Uploaded to: SVG Repo, www.svgrepo.com, Transformed by: SVG Repo Mixer Tools -->
<svg fill="#000000" height="800px" width="800px" version="1.1" id="Capa_1" xmlns="http://www.w3.org/2000/svg" xmlns:xlink="http://www.w3.org/1999/xlink" viewBox="0 0 257.734 257.734" xml:space="preserve">
<g id="SVGRepo_bgCarrier" stroke-width="0"/>
<g id="SVGRepo_tracerCarrier" stroke-linecap="round" stroke-linejoin="round"/>
<g id="SVGRepo_iconCarrier"> <g> <path d="M257.428,200.145c-1.333-7.999-7.528-13.788-15.815-13.482c-8.11,0.299-14.476,6.149-18.677,12.644 c-2.598-2.733-5.97-4.849-8.973-7.067c-3.536-2.612-7.12-5.176-10.839-7.524c17.112-13.634,29.667-32.463,33.506-55.405 c8.011-47.866-25.111-86.738-71.616-94.21c-35.343-5.678-77.081,3.154-106.745,25.693c-1.178-2.252-2.526-4.346-4.139-6.388 c-1.013-1.281-2.167-2.913-3.503-4.213c4.28-5.425,7.168-11.907,6.341-18.992c-0.799-6.849-4.934-13.286-11.704-15.485 c-6.352-2.064-13.5-0.06-17.109,5.734c-3.279,5.263-2.824,11.468-0.809,17.057c-4.848-1.346-10.68-0.577-14.888,1.19 C5.418,42.651-0.637,49.659,0.054,57.694c1.485,17.262,26.809,15.834,36.85,6.542c0.956,1.477,2.611,2.634,3.948,3.717 c1.643,1.33,3.38,2.477,5.223,3.463c-6.547,6.746-12.162,14.351-16.479,22.86c-18.189,35.843-7.121,83.833,33.111,97.339 c-5.749,6.791-9.022,19.642,1.356,23.646c6.217,2.398,12.662-1.038,16.54-6.263c-0.689,6.912,1.244,13.991,9.398,15.091 c4.485,0.606,9.033-1.429,11.986-4.766c0.628-0.709,1.256-1.588,1.842-2.547c0.754,5.524,3.753,10.366,10.196,11.483 c6.391,1.108,9.82-2.405,11.446-7.151c2.895,4.869,7.363,8.45,13.741,6.955c8.692-2.037,9.15-12.359,6.341-19.554 c14.061-1.691,27.813-5.986,40.258-12.502c3.46,2.428,6.948,4.814,10.331,7.355c2.597,1.951,5.186,4.618,8.084,6.406 c-10.153,10.248-9.813,27.297,6.719,32.23c13.381,3.993,26.178-7.406,23.122-19.645 C246.841,224.31,259.909,215.028,257.428,200.145z M43.384,64.021C41.646,62.289,40.53,60.16,37.912,60 c-0.018-0.001-0.033,0.01-0.052,0.009c-0.484-0.201-1.012-0.292-1.481-0.065c-7.493,3.629-28.102,11.514-29.874-2.87 c-0.81-6.576,5.02-11.394,10.935-12.856c5.414-1.339,9.096,0.923,14.229,1.684c1.563,0.232,3.544-1.408,2.35-3.057 c-0.499-0.689-1.096-1.265-1.723-1.8c-1.247-4.634-2.523-9.504-0.745-14.18c2.173-5.714,8.44-8.009,13.846-4.968 c10.296,5.791,5.737,19.452-0.355,26.275c-1.327,1.486-0.686,3.333,0.54,4.262c1.162,1.923,3.28,3.5,4.721,5.082 c1.687,1.851,3.316,3.731,5.006,5.568c-2.289,1.863-4.52,3.788-6.639,5.823C46.935,67.251,45.085,65.716,43.384,64.021z M142.489,203.364c-0.873,0.151-1.409,0.702-1.704,1.383c-0.557,0.432-0.869,1.132-0.572,2.011 c1.634,4.836,4.835,19.267-5.607,16.094c-5.316-1.615-7.028-7.267-8.038-12.222c-0.542-2.662-4.828-2.062-4.731,0.64 c0.175,4.894-0.273,14.175-8.03,11.744c-6.363-1.994-7.094-9.543-6.463-15.238c0.092-0.828-0.517-1.31-1.201-1.397 c-0.049-0.16-0.061-0.335-0.123-0.49c-0.578-1.463-2.351-1.755-3.274-0.428c-1.63,2.342-1.63,5.424-2.986,7.974 c-1.608,3.025-4.57,5.773-8.233,5.706c-9.098-0.167-6.969-12.093-6.165-17.744c0.141-0.99-0.479-1.572-1.183-1.667 c0.002-0.04,0.011-0.08,0.013-0.12c0.088-1.989-2.398-2.218-3.387-0.917c-3.618,4.76-6.418,15.307-14.87,12.107 c-8.654-3.276-1.356-14.309,0.735-19.454c0.165-0.406,0.089-0.743-0.084-1.03c-0.072-0.407-0.28-0.778-0.756-0.996 C19.665,168.147,14.987,113.057,47.67,77.026c27.786-30.633,76.693-42.994,116.563-36.235 c46.196,7.831,77.751,48.451,64.969,95.548C218.267,176.632,180.81,196.742,142.489,203.364z M250.827,207.393 c-0.228,3.098-1.839,5.238-4.832,6.422c-5.235,4.07-9.391,4.697-15.856,1.356c-2.345-1.212-5.792,1.441-3.962,3.962 c7.884,10.867-6.256,22.829-16.975,15.28c-9.534-6.714-7.076-16.015-0.239-23.447c0.236-0.186,0.407-0.405,0.529-0.685 c0.848-1.207,0.004-2.988-1.245-3.245c-2.372-2.942-6.129-5.043-9.155-7.058c-3.173-2.114-6.465-4.056-9.824-5.873 c3.724-2.12,7.296-4.472,10.724-6.999c3.382,2.911,6.915,5.644,10.39,8.441c3.438,2.768,6.815,6.49,10.815,8.351 c0.441,0.205,0.945,0.241,1.43,0.152c0.954,0.848,2.392,1.097,3.397-0.104c1.345-1.607,2.593-3.406,4.045-4.913 c0.74-0.76,1.479-1.52,2.219-2.28c5.043-5.808,9.467-5.284,13.27,1.573C251.558,200.147,253.314,203.169,250.827,207.393z"/> <path d="M78.075,95.326c-0.013-1.137-0.541-1.91-1.271-2.37c-0.162-0.456-0.33-0.892-0.497-1.269 c-0.512-1.156-1.714-1.219-2.63-0.71c-0.415-0.251-0.923-0.331-1.435,0.007c-15.393,10.118-49.369,52.753-20.648,66.414 c10.201,4.852,21.149-1.186,26.27-10.399C86.522,131.422,78.258,111.703,78.075,95.326z"/> <path d="M167.295,109.136c-18.364-20.709-46.988-12.362-70.385-20.915c-0.732-0.267-1.405-0.17-1.993,0.112 c-1.497-0.133-3.054,0.475-3.652,2.357c-0.003,0.011,0.005,0.024,0.002,0.035c-0.263,0.305-0.456,0.67-0.43,1.152 c1.25,23.1,9.186,48.742,28.022,63.634c13.76,10.879,35.255,13.948,48.627,0.623C180.35,143.313,178.892,122.214,167.295,109.136z"/> <path d="M94.681,155.923c-0.41-1.094-1.795-1.757-3.07-1.053c-0.811,0.181-1.471,0.764-1.912,1.516 c-4.461,4.022-10.492,11.603-7.691,17.149c2.724,5.392,7.674,2.466,11.278-1.288c0.957,1.947,2.297,3.656,4.315,4.829 c3.342,1.943,7.731,1.391,10.141-1.755C113.487,167.826,100.432,159.73,94.681,155.923z"/> </g> </g>
</svg>